# xmcd
#
# Track frame offsets: 
#        150
#        14497
#        30590
#        47505
#        66562
#        78742
#        99522
#        113902
#        130687
#        149307
#
# Disc length: 2165 seconds
#
# Revision: 4
# Processed by: cddbd v1.4PL0 Copyright (c) Steve Scherf et al.
# Submitted via: ExactAudioCopy v0.90b3
#
DISCID=8708730a
DTITLE=Ray Stevens - Mississippi Squirrel Revival
DYEAR=1900
DGENRE=Country
TTITLE0=I'm Kissin' You Goodbye
TTITLE1=It's Me Again, Margaret
TTITLE2=Mississippi Squirrel Revival
TTITLE3=Ned Nostril
TTITLE4=Fred
TTITLE5=Erik The Awful
TTITLE6=The Monkees (Theme From)
TTITLE7=Joggin'
TTITLE8=Happy Hour (Is The Saddest Time Of The Day)
TTITLE9=Furthermore
EXTD=
EXTT0=
EXTT1=
EXTT2=
EXTT3=
EXTT4=
EXTT5=
EXTT6=
EXTT7=
EXTT8=
EXTT9=
PLAYORDER=
